<?xml version="1.0" encoding="UTF-8"?>
<!DOCTYPE svg PUBLIC "-//W3C//DTD SVG 1.1//EN" "http://www.w3.org/Graphics/SVG/1.1/DTD/svg11.dtd">
<!-- Creator: CorelDRAW X8 -->
<svg xmlns="http://www.w3.org/2000/svg" xml:space="preserve" width="1000px" height="1000px" version="1.1" style="shape-rendering:geometricPrecision; text-rendering:geometricPrecision; image-rendering:optimizeQuality; fill-rule:evenodd; clip-rule:evenodd"
viewBox="0 0 100000000 100000000"
 xmlns:xlink="http://www.w3.org/1999/xlink">
 <defs>
  <style type="text/css">
   <![CDATA[
    .fil0 {fill:#FFFCD9}
    .fil1 {fill:#DBCCB1}
    .fil11 {fill:#CDBFA6}
    .fil18 {fill:#FFB024}
    .fil12 {fill:#8E5E20}
    .fil19 {fill:#CE7F23}
    .fil8 {fill:#FFEC98}
    .fil2 {fill:#FFD666}
    .fil7 {fill:#FDC428}
    .fil20 {fill:#DFAB27}
    .fil14 {fill:#F6912F}
    .fil15 {fill:#AC6A27}
    .fil9 {fill:#EF99A7}
    .fil10 {fill:#E7668E}
    .fil13 {fill:black}
    .fil16 {fill:#191A3B}
    .fil5 {fill:#4E3919}
    .fil6 {fill:#977039}
    .fil4 {fill:#7B5018}
    .fil17 {fill:#435186}
    .fil3 {fill:#222B73}
   ]]>
  </style>
 </defs>
 <g id="Capa_x0020_1">
  <metadata id="CorelCorpID_0Corel-Layer"/>
  <g id="_2192213393792">
   <path class="fil0" d="M93948145 30952111c-1267796,-654213 -2477955,-649961 -3139373,-576378 1224450,-384450 4942327,-1650238 5324532,-2954294 458268,-1563545 -4663704,-2372364 -4663704,-2372364 0,0 916418,-53858 754843,-323504 -161693,-269528 -1752285,-350434 -1752285,-350434 0,0 1293899,-889489 1105276,-1428780 -188622,-539056 -10378709,-4124413 -15258319,-4313153l2210553 1159253 -3261853 269527 2722679 647009 -5445476 1105276c0,0 -3019255,-4771539 -8303038,-4717681 0,0 -1832954,-1967836 -5580241,-1779214 0,0 -5553429,-1536497 -9408314,-1536497l1374922 566103c0,0 -3828074,80905 -5229807,566103 0,0 -3639334,-350552 -6847329,1105276 0,0 -1725237,4043625 -700866,7035950 0,0 862559,539292 3127089,-107834 0,0 1536497,647008 3019254,458268l-1186182 970512c0,0 2345435,1833073 5499571,1698309 3153901,-134764 3800791,-673938 3800791,-673938l269764 -3154018c0,0 2614962,80906 4367247,-269646 0,0 943466,1239922 1886931,1455710 0,0 -4313389,2048978 -5364689,7224927l-3154019 6065438c0,0 -2021930,646890 -2830514,1563426l-2291458 -3720121 -1833191 107835c0,0 -2830514,-3207995 -5715004,-3450593l4259177 5229807 -9812607 -4852445c0,0 5121973,6631659 8222133,7710006l-161693 1509686 6065556 1266970c0,0 190512,1570985 1020473,3493585 -508937,-933189 -791812,-1599450 -791812,-1599450 -6946541,4929689 -11988434,13388751 -11988434,13388751l-2296774 -2464963 280040 728269c-3977484,-2408979 -14060917,-2968940 -14060917,-2968940l672166 -560079 -1960749 -1176497 -1176379 -3641341c-4537681,-55866 -13500956,7058509 -14845406,9523354 -1344450,2464844 -336142,4817720 -55984,5041893 280158,224292 1120395,-56102 1120395,-56102l55984 -784253c3361302,-3248978 14005050,-5434020 14005050,-5434020l18934858 8627133c11932332,-3025042 17030092,-13164813 17030092,-13164813 -830788,-373938 -1599923,-994607 -2286970,-1716734 3381853,2813388 11168985,6439257 14837373,6485674l-4124412 4771658 673937 134646c0,0 -2480553,6885359 -5834296,8775715 0,0 -4268271,-304725 -6341461,2988073 0,0 2256143,2194963 2560986,5487879 304843,3293034 914646,7500242 6768549,8110164 5853784,609921 4817248,-731694 4817248,-731694l-1219490 -548859c0,0 548977,-670630 122008,-1341379 -426969,-670866 -4146617,-2561104 -3719766,-5061264 426732,-2500041 426732,-4573468 426732,-4573468l4390516 365906c0,0 -1097364,-1890474 -2195081,-1829293 -1097835,61063 -2256262,914647 -2256262,914647l9878512 -9390598 -244134 1951301 2073427 -2560987c0,0 6707722,-4634295 6951501,-6707603 243898,-2073309 -3597758,-9451661 -15793358,-13293318 0,0 3414569,-2195199 9573550,-2682994 6158982,-487796 9695559,-3536696 9695559,-3536696 0,0 182953,1707285 1646458,2439096 0,0 731812,2927011 2256262,4817366l426732 -914646c0,0 3841775,7439179 6768667,7927093 2926892,487914 5427052,-3536814 6280753,-5549060l-60827 1524569c0,0 1524214,-1463506 1768230,-5427170 244016,-3963546 -3963428,-9939457 -5853902,-10915048zm-7609849 1714017l-1056733 -1038190c-611693,-1853859 -2465553,-3003191 -2465553,-3003191l-370866 -444922c1816773,630355 4375042,-908504 5747012,-352205 1371852,556182 2020632,2335750 2020632,2335750l185551 241063c-2280120,556064 -4060043,2261695 -4060043,2261695z"/>
   <path class="fil1" d="M18394739 52677089c-138071,-8977 -213662,-13229 -213662,-13229l672166 -560079 -1960749 -1176497 -1176379 -3641341c-4537681,-55866 -13500956,7058509 -14845406,9523354 -102992,188622 -190394,376535 -267283,562914 38740,869882 310984,1551969 841772,1927914 2712758,1921537 7912447,-7121108 12433829,-7064651 4521263,56575 2255435,3269294 2255435,3269294l2260277 -2827679z"/>
   <path class="fil1" d="M61812568 84795657c0,0 458859,-563504 207284,-1173898 -615237,226653 -2184214,607914 -3942641,-501497 -2266419,-1429607 -3347483,-4323665 -2301498,-7810400 1046103,-3486735 -557717,-3556420 1394883,-4323546 1133033,-445158 503623,-1582088 -788386,-2363506 -371221,345827 -756851,642756 -1155474,867284 0,0 -4268271,-304725 -6341461,2988073 0,0 2256143,2194963 2560986,5487879 304843,3293034 914646,7500242 6768549,8110164 5853784,609921 4817248,-731694 4817248,-731694l-1219490 -548859z"/>
   <path class="fil2" d="M61092568 60573945c0,0 -2578585,7121345 -5865832,8916149 0,0 510355,2963270 3334137,3644885l9932134 -9152960 -2823782 -194764 1191024 -1627206 -3284648 -758386 1265907 -681615 -3748940 -146103z"/>
   <path class="fil3" d="M64418555 44338027c-4138114,-1409056 -7384494,-2128230 -7384494,-2128230l-6742210 -5304453 -2330081 1090513c-2082285,1338544 -1943269,4090751 -1943269,4090751 0,0 190512,1570985 1020473,3493585 -508937,-933189 -791812,-1599450 -791812,-1599450 -3736892,2651932 -6921974,6324690 -9068156,9153078 2183505,3620436 5704847,5102957 8222368,5709454 4519020,-3747169 6559730,-7804140 6559730,-7804140 -830788,-373938 -1599923,-994607 -2286970,-1716734 2965159,2466616 9316188,5557445 13309144,6313233l7559297 -8012014c-1668072,-1168820 -3694018,-2297364 -6124020,-3285593z"/>
   <path class="fil3" d="M70201827 19431039c0,0 2333742,1166930 2435199,3449885 101456,2282954 -2584727,6761225 553583,7848313 3138309,1087205 7343155,-1353781 9435480,-2215278 0,0 225590,307914 205039,1251261 -20433,943466 -984567,6030714 -2379332,7425360 -1394883,1394765 -5763784,3179294 -9004614,3384452 -3240829,205158 -7835675,1292245 -9968748,2748545l-3671696 -861378c0,0 -3979373,-2522955 -5681933,-3979255 -1702324,-1456419 -1907482,-1846183 -1907482,-1846183l3052798 -5980162c0,0 516142,-3004018 2239135,-4747563 1723112,-1743426 2851184,-2297246 2851184,-2297246 0,0 2215395,2728113 3671695,3220278 1456301,492284 4717681,1538387 6809888,-164055 2092324,-1702442 3068270,-3705475 1359804,-7236974z"/>
   <path class="fil4" d="M40977434 22946475c0,0 1536497,647008 3019254,458268l-1186182 970512c0,0 2345435,1833073 5499571,1698309 3153901,-134764 3800791,-673938 3800791,-673938l269764 -3154018c0,0 2614962,80906 4367247,-269646 0,0 943466,1239922 1886931,1455710 1060985,2117836 4524334,5130122 8318747,4149570 3794412,-980670 4689925,-4647287 3538821,-7205439 -300236,-667087 -795473,-1290119 -1362402,-1847599 -1295553,-812836 -2936814,-1451458 -4887996,-1431616 0,0 -1832954,-1967836 -5580241,-1779214 0,0 -5553429,-1536497 -9408314,-1536497l1374922 566103c0,0 -3828074,80905 -5229807,566103 0,0 -3639334,-350552 -6847329,1105276 0,0 -1725237,4043625 -700866,7035950 0,0 862559,539292 3127089,-107834z"/>
   <path class="fil5" d="M69509937 18925881c1126418,1950710 2289923,5108272 -938505,6410911 -4829650,1948820 -8981228,-1609726 -8981228,-1609726l4999020 169370 -4490673 -1101379c0,0 1948821,-423780 2372482,-3473979 0,0 -7286816,2711341 -9828551,169607l-80669 -3185672c0,0 -1783348,6150950 -3647365,6320556 -1864017,169488 -1797639,-4789020 -1797639,-4789020 0,0 -2184569,4534728 -3879216,4026382 -1694647,-508347 -1410946,-4153232 -1410946,-4153232 0,0 -283701,3729688 -2571262,3729688 -706890,0 -1275709,-145512 -1725001,-291851 19016,650552 112323,1300277 319961,1906773 0,0 862559,539292 3127089,-107834 0,0 1536497,647008 3019254,458268l-1186182 970512c0,0 2345435,1833073 5499571,1698309 2843270,-121418 3648901,-571418 3779885,-658938 8386,-37086 17953,-72992 28937,-108307l261733 -3060711c0,0 2614962,80906 4367247,-269646 0,0 943466,1239922 1886931,1455710 1060985,2117836 4524334,5130122 8318747,4149570 3794412,-980670 4777444,-4674452 3538821,-7205439 -247205,-505039 -577323,-998977 -982441,-1449922z"/>
   <path class="fil6" d="M58661739 15317374c0,0 -5553429,-1536497 -9408314,-1536497l1374922 566103c0,0 -3828074,80905 -5229807,566103 0,0 -3639334,-350552 -6847329,1105276 0,0 -61299,143622 -153779,396496 925394,-209055 1994411,-440197 2961380,-623504 2359372,-447402 11471348,366142 11471348,366142l-3986578 -894922c5247405,-1016930 11471347,1423702 11471347,1423702l-854292 -488150c4881618,325394 6752722,4393350 6752722,4393350 0,-1000985 -438189,-2243151 -1045867,-3452837 -300591,-29410 -608386,-45237 -925512,-42048 0,0 -1832954,-1967836 -5580241,-1779214z"/>
   <path class="fil4" d="M82445144 28179825c314527,109134 651732,152126 1000630,153426 1450513,-623032 5556855,-2431301 7835321,-3884767 -415394,-53150 -808937,-73347 -808937,-73347 0,0 1293899,-889489 1105276,-1428780 -188622,-539056 -10378709,-4124413 -15258319,-4313153l2210553 1159253 -3261853 269527 2722679 647009 -5445476 1105276c0,0 -17126,-26575 -47599,-71575 -6614,270709 15000,597048 90945,986812 271063,1388859 -643583,3285948 -812953,4742720 -169370,1456773 -118,2913546 1355080,3218389 1355198,304842 3557128,67795 5522012,-508229 1702560,-499016 3658467,-1353663 4150515,-1573112l-357874 -429449z"/>
   <path class="fil6" d="M90472158 24375137c0,0 1293899,-889489 1105276,-1428780 -174921,-499607 -8937645,-3614649 -14104735,-4218901 1745198,618662 6428154,2227679 6428154,2227679l-1750749 0c0,0 7074100,1572048 8253077,1857875 1178742,285827 -893268,1643505 -893268,1643505l1536379 35670c0,0 55866,-19607 151299,-53741 -382913,-45472 -725433,-63307 -725433,-63307z"/>
   <path class="fil5" d="M88940031 25768249c605433,-900355 880394,-1733506 833504,-2387246 0,0 -490630,1070788 -1829293,44527 -1338662,-1026142 -5800280,-2319923 -8477368,-1650710l1517009 356930c0,0 -3346420,-446103 -4907957,936969l758505 0c0,0 -2989491,1516891 -2766381,2676971 223111,1160079 3881696,2097167 3881696,2097167l-5755634 490630 2543270 669449 -2116065 1486891c147874,87402 315236,157087 509174,200788 1355198,304842 3557128,67795 5522012,-508229 1702560,-499016 3658467,-1353663 4150515,-1573112l-357874 -429449c314527,109134 651732,152126 1000630,153426 1028859,-441969 3393192,-1480041 5494257,-2565002z"/>
   <g>
    <path class="fil2" d="M87816447 24643602c0,0 -744922,341339 -2016852,31063 -1271930,-310158 -4746736,-2016734 -6515320,-1830474 -1768584,186142 -3412798,1334056 -3599058,2295829 -186142,961772 2916498,2140868 4250555,2513151 1334174,372284 2854254,775749 3723073,651615 868820,-124134 3909098,-930709 4808862,-496536 899883,434410 1830592,2699294 1830592,2699294 0,0 5863942,-1458309 5925950,-3226774 62008,-1768348 -4157484,-2202758 -4157484,-2202758 0,0 -2916144,403347 -4250318,-434410z"/>
    <path class="fil7" d="M87904794 25713445c-2058782,-738543 -5549769,-1074213 -8548590,-2394450 -392126,-172678 -730630,-260197 -1022717,-282166 -435591,129685 -845906,309922 -1208505,520749 -557481,792520 -377953,2279529 106299,3055396 921143,463701 2035159,853465 2704491,1040197 1334174,372284 2854254,775749 3723073,651615 868820,-124134 3909098,-930709 4808862,-496536 899883,434410 1830592,2699294 1830592,2699294 0,0 39331,-9922 105237,-27048 739370,-447874 4005357,-2493190 3588310,-3446695 -469961,-1074214 -4028153,-581812 -6087052,-1320356z"/>
    <path class="fil8" d="M90376016 25178642c0,0 3865751,521103 4459256,1563544 593622,1042442 -1636065,2721853 -1636065,2721853 0,0 2895593,-1172718 2967995,-2200632 72519,-1027914 -4285397,-2128348 -4285397,-2128348 0,0 -752954,-115748 -1505789,43583z"/>
   </g>
   <g>
    <g>
     <path class="fil9" d="M84201562 26642738c0,0 -4091223,-1663821 -5632327,-981852 0,0 1874057,1057796 3368507,1200119 1718387,163701 2263820,-218267 2263820,-218267z"/>
     <path class="fil10" d="M78693133 25614115c22913,42874 63307,104055 118701,176456 401102,207638 1246182,616891 2125749,869411 870237,-381142 2122325,-309449 2613782,-261851 -158386,-56575 -339803,-119410 -538937,-185079 -1529647,-392008 -3233861,-641221 -3969925,-681615 -125315,18898 -242008,46418 -349370,82678z"/>
    </g>
    <path class="fil0" d="M83675381 26225690c0,0 -4012562,-2267955 -4797760,-2180789 -785079,87283 -1253859,621614 -1253859,621614 0,0 2126222,904962 2736852,970395 610513,65433 2595121,556181 3314767,588780z"/>
    <path class="fil11" d="M83281129 26183406c45826,-46889 29291,-114330 -37678,-197362 -1056851,-580158 -3739018,-2010710 -4365830,-1941143 -785079,87283 -1253859,621614 -1253859,621614 0,0 335079,142560 777048,318426 917008,-624331 4223979,919016 4773074,1182639 37087,5905 71930,10748 107245,15826z"/>
   </g>
   <path class="fil0" d="M88197117 24536122c0,0 -3024215,-1995829 -5020162,-1995829 0,0 -271890,1088623 453780,1421340 725670,332599 2630790,1058387 4566382,574489z"/>
   <path class="fil12" d="M87118415 23906357c0,0 -1383072,-697441 -1917994,-709134 0,0 -441614,720827 139607,1290473 581103,569292 1580788,104528 1778387,-581339z"/>
   <path class="fil13" d="M86990738 23827696c0,0 -1073977,-541418 -1489135,-550394 0,0 -342756,559370 108425,1001575 451181,442205 1227048,81260 1380710,-451181z"/>
   <path class="fil0" d="M86403493 23707578c0,183307 -159331,332008 -355748,332008 -196536,0 -355867,-148701 -355867,-332008 0,-183544 159331,-332245 355867,-332245 196417,0 355748,148701 355748,332245z"/>
   <path class="fil0" d="M85520028 24218877c0,117520 -101929,212717 -227835,212717 -125905,0 -228071,-95197 -228071,-212717 0,-117519 102166,-212834 228071,-212834 125906,0 227835,95315 227835,212834z"/>
   <path class="fil14" d="M91806568 25096083c0,0 530788,-254882 382205,-445985 -148582,-190984 -1656379,-403465 -2845632,-169843 -1189371,233505 -2336222,445985 -3228191,360946 0,0 1328623,852402 1789844,872244 461339,19725 2797443,-829725 3901774,-617362z"/>
   <path class="fil15" d="M88611802 24619508c-921615,168779 -1789962,289016 -2496852,221693 0,0 1328623,852402 1789844,872244 273779,11693 1207323,-282519 2152088,-479409 -495237,-75827 -1217481,-246615 -1445080,-614528z"/>
   <path class="fil4" d="M99802047 41867159c244016,-3963546 -3963428,-9939457 -5853902,-10915048 -282166,-145630 -561024,-257126 -832206,-344055 -345945,-97796 -689882,-173386 -1030630,-224528 -515316,-61536 -959410,-43110 -1276537,-7795 67678,-21378 144095,-45591 226063,-72166 -175393,827 -349488,7677 -521220,23622 0,0 -51969,16772 -142087,42402l26811 34842c-2280120,556064 -4060043,2261695 -4060043,2261695l-1056733 -1038190c-611693,-1853859 -2465553,-3003191 -2465553,-3003191l-12992 -15473c0,0 154606,2380042 -468544,4444256 -444921,1473781 -1227166,3165357 -1638308,4012798 11811,-9803 19606,-16417 19606,-16417 0,0 182953,1707285 1646458,2439096 0,0 731812,2927011 2256262,4817366l426732 -914646c0,0 3841775,7439179 6768667,7927093 2926892,487914 5427052,-3536814 6280753,-5549060l-60827 1524569c0,0 1524214,-1463506 1768230,-5427170z"/>
   <path class="fil5" d="M97212360 37805227c-1635710,-778938 -5569493,3388467 -5452563,4517956 0,0 -1012796,-389528 -973702,-1596852 38977,-1207442 3777877,-3427325 3777877,-3427325 0,0 -3271302,584292 -4167287,1791615l233623 -1051654 -817796 856890c0,0 -857009,-2337049 3466183,-5063271 0,0 -1246300,-311457 -3271538,1129489l155788 -973702c0,0 -1285277,778938 -1713663,2142167l-662008 -3855830 -116929 2453743c0,0 -746221,-1367482 -1316104,-2077325 -8267,7795 -15945,15000 -15945,15000l-429567 -422008c-25039,-8032 -48425,-12165 -68976,-8386 -428505,77953 -194764,3038034 506339,4751697 701103,1713662 1557993,3154727 701103,2648388 -856891,-506339 -3738783,-1012560 -4206264,-3310515 -205748,-1010906 -305905,-2210080 -499488,-3296223 -2362,8268 -4607,16417 -6969,24449 -444921,1473781 -1227166,3165357 -1638308,4012798 11811,-9803 19606,-16417 19606,-16417 0,0 182953,1707285 1646458,2439096 0,0 731812,2927011 2256262,4817366l426732 -914646c0,0 3841775,7439179 6768667,7927093 2926892,487914 5427052,-3536814 6280753,-5549060l-60827 1524569c0,0 102048,-98504 256772,-311339 383623,-1234844 754725,-2815278 791221,-4387208l-1012560 1441064c0,0 778820,-5452564 -856890,-6231619z"/>
   <path class="fil6" d="M93948145 30952111c-282166,-145630 -561024,-257126 -832206,-344055 -345945,-97796 -689882,-173386 -1030630,-224528 -515316,-61536 -959410,-43110 -1276537,-7795 67678,-21378 144095,-45591 226063,-72166 -175393,827 -349488,7677 -521220,23622 0,0 -51969,16772 -142087,42402l26811 34842c-642757,156733 -1243229,405827 -1777797,681379 3611342,-500434 5894296,1152166 5894296,1152166l-1301458 59173 3963547 3135357 -650670 0c1788663,1573938 2776065,4379295 3277916,6352682 182599,-3963546 -3978428,-9864102 -5856028,-10833079z"/>
   <path class="fil16" d="M80451796 37190580c1394765,-1394646 2358899,-6481894 2379332,-7425360 20551,-943347 -205039,-1251261 -205039,-1251261 -2092325,861497 -6297171,3302483 -9435480,2215278 -3138310,-1087088 -452127,-5565359 -553583,-7848313 -44528,-1002757 -519804,-1789963 -1038663,-2357837 -26929,42756 -277795,444213 -631772,1085906 443150,2244805 -506221,3742208 -2124568,5059020 -26103,21378 -53268,40276 -80079,60945 -607323,2069057 -820394,4229059 120472,5739335 2402719,3856775 11760364,126496 11760364,126496 0,0 -316181,4805201 -6069808,6259494 -5753626,1454174 -17640368,-2339412 -17640368,-2339412l4362641 1960041 -7397604 -316181 7966660 1517481 -7147565 737481c1565434,1081891 3090002,2048506 3090002,2048506l3671696 861378c2133073,-1456300 6727919,-2543387 9968748,-2748545 3240830,-205158 7609731,-1989687 9004614,-3384452z"/>
   <path class="fil16" d="M74594823 37009754c0,0 -7581148,-181890 -16011037,-3093074l1758781 1091694 -3699452 242599 8793905 2001379 -1334292 545788c0,0 5458469,121299 10492095,-788386z"/>
   <path class="fil17" d="M58038117 28276558c4184530,-788505 7944809,242480 7944809,242480 0,0 -16890,-358701 -118937,-916182 -1498112,-2007 -2976380,-481535 -3831854,-770788 -1456300,-492165 -3671695,-3220278 -3671695,-3220278 0,0 -1128072,553820 -2851184,2297246 -1722993,1743545 -2239135,4747563 -2239135,4747563l-3052798 5980162c0,0 110079,205630 809764,866103 3358231,-1461143 9012409,-6497249 9012409,-6497249l-5336933 -727796c3092955,-727796 8672487,-788386 8672487,-788386l-5336933 -1212875z"/>
   <path class="fil18" d="M76238092 30867780c-1664057,43229 -3933547,302599 -4408823,-1555985 -475512,-1858584 799725,-5802879 799725,-5802879 0,0 -1685670,2150435 -1901812,4106224 -216142,1955789 336732,3854530 2301616,4376342 2029844,539292 3031183,361063 5456933,-831851 2296655,-1129489 2848821,-2049569 2848821,-2049569 0,0 -3432404,1714608 -5096460,1757718zm-5390674 -10183945l-115630 40630c907087,2749845 -67559,4460909 -1889765,5943548 -2092207,1702442 -5353587,656339 -6809888,164055 -828425,-279921 -1901930,-1283150 -2674017,-2096458 -107953,150118 -2249648,3128979 -3774807,5217406 -1564961,2142757 -4526342,7391226 -4526342,7391226l1661222 1516773c1685553,-4983665 10497056,-11122922 10497056,-11122922 5200279,2576104 8172880,-1424411 8413589,-3928350 240709,-2503821 -781418,-3125908 -781418,-3125908z"/>
   <path class="fil19" d="M68842023 26668013c-2092207,1702442 -5353587,656339 -6809888,164055 -828425,-279921 -1901930,-1283150 -2674017,-2096458 -73465,102165 -1088860,1514411 -2210790,3064491l1192206 0 -2135317 1300512c-213425,293623 -422480,580631 -620906,852403 -353740,484370 -779055,1128071 -1225158,1833426l3141380 -686457 -3419884 5039886c0,0 103701,-82913 288071,-229370 3098861,-4166696 8847527,-8172408 8847527,-8172408 2820474,1397127 4973626,923268 6393548,-201378 -126378,-398741 -221221,-835749 -291260,-1279844 -151063,139252 -309567,276142 -475512,411142zm3122246 4813468c296339,222757 646772,399095 1064529,510001 921496,244843 1623426,323386 2345435,234213 1208504,-467363 2104962,-885710 2104962,-885710 0,0 -3540712,321615 -5514926,141496zm7087 -1777442c-434056,-94606 -860316,-249449 -1228466,-492992 78189,540472 239764,1042914 501969,1473898 308150,-137598 725788,-275551 1165041,-402638 -177757,-153425 -326457,-343701 -438544,-578268z"/>
   <path class="fil16" d="M69478401 48751338l-7530478 627756 3472089 -1452048c0,0 -8332684,-631300 -11931151,-3345830 -3598113,-2714411 5239729,-1830592 5239729,-1830592 0,0 -146103,-82913 -404410,-227480 -815670,-207993 -1290119,-313347 -1290119,-313347l-1632994 -1284686c-2101537,-1123111 -4772838,-2492719 -6697446,-3276381l-741851 347127c-2082285,1338544 -1943269,4090751 -1943269,4090751 0,0 190512,1570985 1020473,3493585 -508937,-933189 -791812,-1599450 -791812,-1599450 -633189,449292 -1249016,929765 -1848072,1428545 -113858,2699293 62362,5742642 757087,8640951 545434,2276105 53859,3655043 -904961,4469886 399449,128386 785552,235276 1150158,323150 4519020,-3747169 6559730,-7804140 6559730,-7804140 -830788,-373938 -1599923,-994607 -2286970,-1716734 2965159,2466616 9316188,5557445 13309144,6313233l6495123 -6884296z"/>
   <path class="fil18" d="M65667099 52180435c0,0 -7565557,-2976971 -11728710,-5568666 -4447326,-2768506 -4822090,-4791027 -342284,-6968746l-3515436 -2799923c0,0 -3391065,964489 -3826656,4168822 -435473,3204333 1929096,7622014 4822208,9364141 2893349,1742128 8617802,4853272 11790954,5257682l2799924 -3453310z"/>
   <path class="fil19" d="M65667099 52180435c0,0 -7565557,-2976971 -11728710,-5568666 -4285870,-2667994 -4496342,-4957091 -517796,-7046226 -360000,-513544 -979843,-668032 -1258347,-1064528l-1312560 -1045513 -2701538 1960868 2138860 49842c0,0 -2735789,1541812 -945119,5968824 1790671,4427011 8058077,6317013 8058077,6317013l-2288269 -1890002 9141267 4062523 1414135 -1744135z"/>
   <path class="fil4" d="M47285588 38285463l-2291458 -3720121 -1833191 107835c0,0 -2830514,-3207995 -5715004,-3450593l4259177 5229807 -9338157 -4586815c0,0 4647523,6366029 7747683,7444376l-161693 1509686 6065556 1266970c0,0 18543,152953 69212,421772 242363,-583701 66615,-1545001 445040,-2524018 319607,-827126 762757,-1550080 1064883,-1994765 -115984,95079 -221811,193701 -312048,295866z"/>
   <path class="fil5" d="M47285588 38285463l-2291458 -3720121 -1652718 97205 2037876 3705121c0,0 -4748862,-4876894 -7719810,-6882879l4045634 4967602 -6418352 -3173979 7521148 5539256c0,0 -2715711,-718937 -5713706,-1539686 1060749,944528 2125041,1720513 3020436,2031970l-161693 1509686 6065556 1266970c0,0 18543,152953 69212,421772 242363,-583701 66615,-1545001 445040,-2524018 319607,-827126 762757,-1550080 1064883,-1994765 -115984,95079 -221811,193701 -312048,295866z"/>
   <g>
    <path class="fil18" d="M65821233 31554119l-214370 -132047 946772 -500906 1428663 880276 -946773 500906 -132874 -81614 -1323544 699922c-316772,167126 -510709,294567 -582757,381496 -69448,86103 -49370,163347 61418,231969 92244,56693 207283,72756 345000,47480 135118,-24212 348780,-113268 640985,-267756l1416733 -749528 -140433 -86339 946654 -501024 1049647 646654 -947481 500906 -220748 -135708 -1424883 753071c-363308,192165 -698859,326575 -1005474,402874 -304606,75709 -608858,94252 -912993,55748 -303897,-38385 -582638,-135827 -837284,-292441 -204212,-126142 -350551,-256417 -438661,-390591 -92127,-134645 -115276,-268464 -68623,-399803 44764,-131103 143859,-262205 297284,-393780 144685,-128386 412914,-296929 806221,-504331l1257521 -665434z"/>
    <path class="fil18" d="M66543241 35421996l-1105158 -681496 940513 -497599 212480 131102 2572089 -759921 -224882 -138662 947481 -500906 2006576 1237088 -947009 501024 -224764 -138780 -1514056 1412009 205158 126260 -940867 497599 -1457600 -897993 865631 -457914 244961 151063 390591 -328228 -714804 -440670 -618662 187441 229252 141142 -866930 457441zm3203034 -1392402l-1353308 414803 499725 307914 853583 -722717z"/>
    <path class="fil18" d="M69332062 37140502l-627874 -386930 1263780 -668504 628229 387284c-269409,228189 -300472,406299 -93189,534094 150237,92363 309686,93780 479174,4016 88819,-46771 136890,-102165 143386,-165000 7441,-68740 -22087,-188386 -89410,-359764 -82559,-216851 -124134,-386457 -125315,-508229 -4134,-112677 42756,-236102 142205,-369331 96851,-132638 247677,-252756 451536,-360591 365906,-193701 735945,-292795 1110237,-297874 372874,-5551 682560,66969 927520,218150 244607,150591 353386,330355 327284,538937l240945 -127913 632835 389410 -1121221 592914 -623859 -384568c233032,-210827 252638,-375591 59055,-495236 -136417,-84213 -286890,-82796 -450945,3779 -79961,42284 -119646,85512 -120709,130276 -3543,45236 25985,168425 88583,369213 81969,270709 124961,458268 128977,561969 2952,51850 -10276,113386 -40394,184961 -28583,71574 -68977,139133 -120355,203149 -110905,142914 -274134,271536 -489331,385040 -330827,174685 -696614,268937 -1098662,282520 -406536,15590 -741497,-58583 -1006654,-221575 -246378,-151772 -366142,-343701 -359056,-575788l-256772 135591z"/>
   </g>
   <path class="fil4" d="M68311471 65712571l1977049 -2442049c0,0 6707722,-4634295 6951501,-6707603 167363,-1422639 -1588938,-5342131 -6646186,-8903393 -1627324,1506851 -5922879,5551658 -7776738,7942329 625512,126378 1198465,199961 1694410,206220l-4124412 4771658 673937 134646c0,0 -9094,24566 -24094,65315l3241065 62598 -1495749 872599c0,0 3419176,480709 4077995,445158l-1353544 1549253 2831577 231614 -945 55040 121890 -115748 -136535 1091694 -11221 740669z"/>
   <path class="fil5" d="M67976983 52271380l3442561 -204922c0,0 -1024843,-1293308 -3690475,-1689332 -1776852,1728663 -3790751,3778822 -4911972,5224729 625512,126378 1198465,199961 1694410,206220l-4124412 4771658 673937 134646c0,0 -9094,24566 -24094,65315l3241065 62598 -1495749 872599c0,0 637796,89646 1415198,188622 1793860,-305551 6113391,-1246418 8287684,-3484727l-2254018 0c0,0 4836028,-737717 4098192,-3073703 -737717,-2335868 -6352327,-3073703 -6352327,-3073703z"/>
   <path class="fil6" d="M70593835 47659526c-359410,332953 -849567,790040 -1414253,1325434 1886694,901064 5021697,2554962 6050674,4033940l-1836852 -612284c0,0 3061302,2778664 2731656,4050358 -329646,1271694 -5557445,4851145 -5557445,4851145l282520 -753544 -4168941 3250751 1657088 135590 -945 55040 121890 -115748 -136535 1091694 -11221 740669 1977049 -2442049c0,0 6707722,-4634295 6951501,-6707603 167363,-1422639 -1588938,-5342131 -6646186,-8903393z"/>
   <path class="fil7" d="M68493007 63982019l-2938231 -263268 1281143 -1528230 -3867287 -519094 1872876 -951379 -3748940 -146103c0,0 -2578585,7121345 -5865832,8916149 0,0 259253,1499765 1425356,2610829 1643269,-2078742 5543862,-6835990 7581620,-7832368l-1108347 1341615 2741813 -933072 -829961 2489648 3455790 -3184727z"/>
   <path class="fil20" d="M58100124 66542178c1305710,838466 3165830,1993703 4632051,2748900l522757 -481772c-1442364,-668268 -3342050,-1649174 -4827642,-2770632 -106772,169488 -215669,337559 -327166,503504zm-1786654 2147955c1274764,812717 2957600,1847009 4309491,2544333l522166 -481064c-1313859,-609567 -3002365,-1476851 -4413074,-2472758 -137245,144567 -277087,280158 -418583,409489zm4235908 -6767013c-87874,204921 -184488,425669 -291378,661654 1382482,903898 4133507,2656655 5941186,3510947l539292 -496890c-1719214,-765355 -4463626,-2125395 -6189100,-3675711zm-1374804 2841262c1519726,973347 3716696,2326773 5202642,3010396l541890 -499253c-1452875,-640748 -3727326,-1743072 -5464256,-3036852 -90709,173740 -183543,349016 -280276,525709z"/>
   <path class="fil17" d="M69305724 48626849c0,0 -5441343,-4275357 -11206781,-5894886 0,0 5637406,456260 12254892,4860594l-1048111 1034292z"/>
   <path class="fil4" d="M34931012 64203948c4332995,-1098426 7763864,-3135120 10377646,-5283902 -5280949,-1380119 -7421581,-4484058 -8114180,-5806422 -1852797,2439333 -2935750,4255870 -2935750,4255870l-2296774 -2464963 280040 728269c-863623,-523111 -2015435,-958820 -3289255,-1320828l829962 2617679 -3424609 -1933820 1974096 2457758 -2659018 -443387 2296537 2175711 -2900908 -161221 2739687 1249135 -625866 399803 7748392 3530318z"/>
   <path class="fil5" d="M45308658 58920046c-4711776,-1231300 -6922447,-3833979 -7836503,-5320279 -83504,1064292 -118228,2539844 105591,4039373l767481 -469134c0,0 -724725,3751892 -2259687,4604649 0,0 -2046497,-3794531 -3623979,-4732445l1108465 2472876 -3970396 -3162876 183071 577441 -665198 -375709 1212167 2193663 -3915240 -1035001 1555277 1473309 -2815514 -156496 62953 62952 2591340 1181458 -625866 399803 7748392 3530318c4332995,-1098426 7763864,-3135120 10377646,-5283902z"/>
   <g>
    <path class="fil18" d="M61989616 84754437c0,0 -2974963,774567 -6105005,-1022718 -3130042,-1797521 -2696105,-3191931 -3098861,-5826028 -402992,-2634096 -1797403,-5887918 -3222876,-6166776l-743741 681614c0,0 1921183,1735396 2664923,5082288 743859,3346892 278977,6259847 3842720,7778392 3563743,1518426 7685321,960473 7747329,216850l-1084489 -743622z"/>
    <path class="fil19" d="M54842523 85051484c-118818,-555473 -126378,-1210631 156733,-1884568 -2159175,-1544883 -1853860,-2908939 -2213506,-5261225 -402992,-2634096 -1797403,-5887918 -3222876,-6166776l-743741 681614c0,0 1921183,1735396 2664923,5082288 707954,3185908 323741,5977682 3358467,7548667z"/>
   </g>
   <path class="fil1" d="M62656703 74125216c0,0 -1261891,-1203426 -1893191,-1203426 -631181,0 -2083938,821811 -2083938,821811l3977129 381615z"/>
   <path class="fil2" d="M29020298 54377051c0,0 -2673073,-856300 -5972957,-1232245 -3299885,-375946 -4657327,-375946 -4657327,-375946l-2255552 2735908 11048158 5168862 459331 -427913 -2025828 -1106930 2547994 -20906 -2715121 -2192836 3195475 542953 -2464490 -2652404 3738428 2088545 -898111 -2527088z"/>
   <path class="fil7" d="M27589037 56332013c-2869372,-28819 -7111895,-443623 -10191622,-2359136l-1262953 1531891 11048158 5168862 459331 -427913 -2025828 -1106930 2547994 -20906 -2715121 -2192836 3195475 542953 -1055434 -1135985zm2109687 -45827c-240945,13228 -517323,25512 -825119,34370l1044804 583583 -219685 -617953z"/>
   <path class="fil20" d="M25389233 53499137c-460394,1557402 -1182993,3668743 -2117719,5344610l549922 257244c701457,-1539568 1706104,-3839176 2228978,-5471933 -212598,-43701 -432874,-87402 -661181,-129921zm-6607683 3243900l491930 230315c592323,-1361812 1218780,-2896302 1576182,-4052720 -248740,-21850 -477402,-40748 -685867,-56929 -327874,1117914 -795355,2537128 -1382245,3879334zm4468823 -3574019c-430513,1427364 -1065828,3254176 -1871340,4789374l526063 246142c660709,-1463978 1517600,-3450357 2014135,-4947642 -219212,-31181 -442441,-60590 -668858,-87874z"/>
   <path class="fil18" d="M15716115 47285943c-4537681,-55866 -13500956,7058509 -14845406,9523354 -1344450,2464844 -336142,4817720 -55984,5041893 280158,224292 1120395,-56102 1120395,-56102l55984 -784253c11102,-10629 23031,-21023 34252,-31771 220984,-3727917 2267364,-6690242 6627170,-9435362 3265633,-2056065 5961737,-2915553 7386030,-3259491l-322441 -998268z"/>
   <path class="fil19" d="M8652526 51543702c3265633,-2056065 5961737,-2915553 7386030,-3259491l-91536 -283110c-2375080,955276 -7634769,3163585 -9794653,4815240 -868583,664252 -1689568,896339 -2411104,900591 -1413781,1233190 -2473821,2365278 -2870554,3092365 -1344450,2464844 -336142,4817720 -55984,5041893 280158,224292 1120395,-56102 1120395,-56102l55984 -784253c11102,-10629 23031,-21023 34252,-31771 220984,-3727917 2267364,-6690242 6627170,-9435362z"/>
   <path class="fil13" d="M94034483 30785221c-730512,-377008 -1439056,-542953 -2043190,-603426 1633702,-582402 3997798,-1600395 4322366,-2707443 24566,-84212 36850,-167834 36850,-250748 0,-169488 -51378,-336024 -153543,-497599 -568111,-897048 -2713703,-1460670 -3900358,-1711182 38268,-30118 81378,-57756 101929,-96496 21733,-41339 32599,-85867 32599,-130867 0,-53504 -15236,-107716 -45709,-158385 -82323,-137481 -336260,-233977 -661772,-301890l354 -11221c-7559,-118 -29882,-709 -61653,-1417 -210237,-40512 -446221,-69922 -683859,-91536 358701,-300591 804804,-754843 804804,-1166812 0,-58464 -8977,-115866 -28465,-171850 -255236,-729450 -10593906,-4251854 -15428280,-4438941l-686457 -48779c0,0 1600749,932008 2229569,1261772 -830080,68622 -2617207,216378 -2617207,216378l-687875 79489c0,0 1750395,549567 2552601,740315 -1166458,236693 -4290240,870591 -4487248,910749 -42047,-60709 -104409,-148465 -184961,-255827 -144803,-253229 -300709,-421181 -419646,-524646 -675945,-797717 -1849844,-1975632 -3459569,-2831341 -486142,-294095 -847560,-420236 -885592,-433110l-5196 14881c-988230,-404055 -2109923,-668386 -3355751,-666969 -340512,-332362 -2177836,-1942678 -5634571,-1779332 -300828,-82204 -5684296,-1536025 -9431228,-1536025l-840710 -17834c0,0 1062875,500433 1339962,614528 -1207088,53268 -3346656,193110 -4373507,533268 -342638,-30236 -3785791,-291496 -6905557,1124292l-66496 30118 -28701 67205c-71575,167835 -1741655,4144846 -705827,7170596l21614 63071 56457 35433c37795,23622 945473,562205 3213427,-70039 248859,98268 1300159,484016 2463900,483780 -346772,283701 -918190,751300 -918190,751300l185079 144685c98032,76653 2436616,1874056 5623115,1737875 3127207,-133465 3842129,-657874 3913231,-717284l60236 -50197c0,0 234450,-2742640 261261,-3056341 600472,11339 2613072,23268 4117916,-257362 201969,247913 814843,949253 1515710,1285867 -1071497,634607 -4206145,2822483 -5092799,7122762 -19134,37204 -3040396,5847406 -3108782,5979099 -346300,116693 -1846537,651496 -2665042,1414843 -224882,-365079 -2224490,-3611459 -2224490,-3611459 0,0 -1692639,99567 -1855395,109134 -436417,-477402 -3049845,-3215436 -5778193,-3444924l-440670 -37087c0,0 3162877,3883704 3992720,4902524 -1314568,-650080 -9037803,-4469295 -9037803,-4469295 0,0 211182,853819 806221,1566379 1672443,2438033 3542129,4147326 5310241,5343548 637796,481299 1257402,865394 1820907,1085197 -24331,226181 -165237,1542167 -165237,1542167 0,0 5855674,1223032 6102997,1274646 36378,241890 134056,801261 345237,1543112l-57874 40984c-6291383,4464689 -11077450,11894301 -11910482,13233318 -289134,-310276 -2688427,-2723152 -2688427,-2723152l247086 634371c0,0 52205,135590 94253,245197 -3676066,-1910789 -11041781,-2556144 -13130562,-2704373l165473 -202086 -8859 -7323c138071,-115040 269764,-224764 269764,-224764 0,0 -2013545,-1208269 -2127049,-1276300 -41693,-129331 -1196221,-3702641 -1196221,-3702641l-135000 -1654c-4656972,-57519 -13682609,7182998 -15012532,9621268 -1361457,2495907 -404055,4962051 -8504,5278587 342757,274134 1140710,27519 1297206,-24804l118937 -39567c0,0 7914,-109606 17953,-249567l2598 0c0,-2362 119,-19488 473,-43110 15118,-211181 33661,-470788 38622,-541063 3211656,-3030003 12975246,-5151500 13801310,-5326540 111732,51024 18938755,8629023 18938755,8629023l64016 -16182c11152922,-2827443 16437533,-11947450 17083714,-13134931 3740909,2309647 9061897,4508153 12064616,4716027 -42756,49607 -118347,136890 -217796,251929 -1175079,943111 -3621971,4190319 -3621971,4190319 -158150,182953 -251693,291260 -251693,291260 0,0 573189,114449 772796,154252 -424607,1107520 -2704136,6753903 -5632209,8444652 -531379,-19960 -4474020,-57401 -6448352,3078310l-81023 128622 108779 106181c22205,21496 2210435,2188939 2505120,5370477 264213,2854136 706418,7630754 6936147,8279888 3038861,316536 4684020,169134 5029256,-450236 48071,-86457 66378,-172323 66378,-251930 0,-142913 -59055,-265157 -110197,-331417l-28582 -37205c0,0 -788859,-354922 -1065710,-479410 92953,-164764 200552,-411024 200552,-709607 0,-203504 -51142,-425788 -193938,-650079 -127677,-200433 -452598,-451536 -902599,-798898 -1074095,-829725 -2821183,-2179018 -2821183,-3767011 0,-119410 9921,-240591 30709,-362717 348543,-2041419 413976,-3817798 426496,-4401027 365315,30236 4548901,378898 4548901,378898l-180709 -311339c-47362,-81378 -1169174,-1989332 -2368230,-1922600 -376299,20906 -751890,130630 -1092993,265512 1574057,-1496340 7845361,-7457840 8473944,-8055361 -70040,559962 -260315,2082522 -260315,2082522 0,0 2437679,-3011223 2470750,-3051853 413740,-286654 6760753,-4715909 7008785,-6824533 8149,-69567 12401,-143622 12401,-222165 0,-1218309 -994843,-3491696 -3294687,-5912722 -2045435,-2153269 -5824375,-5132012 -12239774,-7226108 1018820,-551221 4200712,-2059490 9130519,-2449962 5250477,-415867 8646976,-2704727 9552409,-3385751 126851,539882 517324,1625553 1611025,2218112 122599,463111 851930,3054806 2273742,4818075l189095 234449c0,0 269764,-578032 394843,-846379 787205,1459726 4061932,7247486 6726855,7691699 2656892,442914 4947288,-2596774 6086934,-4815949 -11456,285473 -42638,1064647 -42638,1064647l336497 -323032c64370,-61890 1579962,-1560237 1825749,-5551067 6851,-114213 10394,-230079 10394,-347363 0,-4007365 -4012917,-9738551 -5965517,-10746150zm1845002 -3858192c63307,100040 94724,198544 94724,298465 0,47244 -7204,94961 -21259,143150 -322914,1101851 -3544728,2312482 -5182445,2823309 -102875,12165 -192520,25630 -268820,38622 -61181,-79370 -113622,-147638 -123897,-160866 -55394,-147048 -1260710,-1960632 -1260710,-1960632 -27283,-52795 -695197,-1296379 -2877404,-1474489 -1622009,-132402 -3394727,-1052127 -4958744,-1863427l-1199056 -608268c-1202954,-579567 -2058309,-238583 -2425159,229607 -258426,330000 -289253,724843 -76418,982323 343938,416339 3540594,1877482 5528981,1840041 682442,-12874 1166812,-200551 1440001,-557835 0,0 -9685,-7559 -10394,-8150 561025,181181 1121340,315473 1670317,360237 875906,71457 1476497,323976 1877127,585591 -687520,-192402 -1612324,-129095 -2499805,220984 -1514647,597402 -3564333,150118 -3564333,150118 -2048624,-419882 -5594178,-1359804 -6067210,-2479253 -82205,-194410 -57047,-377363 79134,-576025 1244647,-1814292 3394609,-2378623 5476894,-1437402 1626616,735237 3347837,1168111 4168114,1350119 74055,58937 1666064,1315158 2657482,1153702 328229,-53268 661654,-162166 1014450,-277323 663307,-216497 1415198,-461812 2357246,-407245l590 -11693c1191379,215788 3642405,812245 4170594,1646340zm-9536228 5480556c-190158,-186851 -852284,-837285 -900828,-885001 -599528,-1749214 -2222836,-2860514 -2491773,-3034845 859961,116929 1802245,-95906 2719490,-305788 952324,-217677 1851734,-423307 2451380,-180236 1276655,517559 1908545,2209136 1914805,2226143l9921 27166c0,0 30591,39803 33071,42874 -1845120,528898 -3300357,1723230 -3736066,2109687zm53386 2293230l219921 691063c349961,1184647 876733,2939176 1829529,3426617 26811,198307 120355,669449 406064,1153938 -116339,436181 -380552,687993 -535276,801969 -1335474,-1482403 -2883192,-2945671 -3175633,-3219806 -10866,-129212 -174921,-2076970 -191929,-2279883 130039,-80079 948544,-583820 1357560,-835513 26811,91418 56339,179646 89764,261615zm-7117683 -8967645c454843,-5551 1213702,39921 2437325,239410 1008308,212716 1912797,503504 2313899,640157 -216732,140079 -522874,218859 -927874,226418 -1225631,23150 -2960082,-573189 -4094767,-1078229 87756,-12402 178819,-21142 271417,-27756zm-1290237 -1150395c300118,-334961 967678,-545079 1929804,-81378l1189372 603190c707717,367205 1457599,754016 2220710,1084489 -692127,-207993 -1658387,-460276 -2609766,-583583 -1037481,-299764 -2119017,-664489 -2730120,-1022718zm5433429 -1905828c1273702,390709 2778073,913111 3646539,1427245 298701,176811 574488,308268 817087,417048 -682087,110905 -1327088,68622 -1706222,22913 -241299,-46653 -1240040,-250984 -2458703,-637205l2481 -4252c-542009,-314646 -395079,-953032 -301182,-1225749zm8182566 2012364c151063,28228 276850,58464 359410,88937 -46772,14409 -239410,70157 -469489,133937 -900001,-9803 -1620474,221457 -2260159,430276 -338623,110551 -658702,214961 -958111,263740 -472678,76890 -1206379,-299528 -1759608,-652677 435945,28464 1012442,26102 1611852,-93780 1006536,-201142 2990671,-179291 3476105,-170433zm-18902968 -2718309l6090596 -1312088 -758387 -132874c0,0 -806575,-191457 -1574411,-373938 961655,-79606 2730121,-225590 2730121,-225590 0,0 -1330868,-698032 -1982246,-1039607 5033154,514252 13677530,3591971 14195444,4138940 2717,12638 6142,25039 6142,38976 0,285709 -583111,838702 -1043269,1155592l-137834 94842c-248859,5315 -510473,13937 -770434,27402 308740,-342520 346890,-824174 300709,-1113426 0,0 -257599,957757 -1057914,1111536 -295512,56575 -806458,-218740 -1453230,-567402 -1280316,-689882 -3215199,-1732560 -6087760,-1732560 0,0 829725,207520 1901221,526772 -104409,307441 -164409,738780 -10629,1114843 -453780,-160394 -922560,-343110 -1384017,-551693 -2256616,-1019883 -4588823,-404646 -5941540,1567442 -206693,301181 -246615,624449 -115630,934607 633780,1498938 5301736,2503349 6737131,2779372 -857363,462166 -4586106,2370829 -7583982,2330199 -1257285,-16890 -2070947,-298701 -2488231,-861733 -695197,-938150 -306496,-2741104 217205,-4549728 456733,-1577363 413977,-2647443 210945,-3359884zm8006227 7657801c-1484647,1154528 -4463862,3057640 -7271344,2367640 -1246655,-306379 -2069411,-981852 -2445239,-2007522 -657638,-1794922 211890,-4306066 1432443,-6160989 -49016,408780 -141851,872363 -294095,1398426 -636142,2197561 -906615,3867996 -158032,4878075 491575,663426 1402560,994962 2784924,1013741 2040119,27520 4347405,-786142 5951343,-1489371zm-28777700 -4338901c-221575,117638 -1106339,488268 -3628231,595985 -2543506,108779 -4569334,-1107285 -5181618,-1521380 141850,-116102 551693,-451299 907678,-742559 1022835,-37796 1799529,-255945 2038111,-330591 2179845,1254450 4986382,523347 5106264,490985l111969 -30355 1147914 -5604453c-171024,2432718 -455197,6476107 -502087,7142368zm-966733 -1844175c-516496,117520 -2862640,567166 -4678114,-454607l831379 -5154571 -1204607 5108036c-206339,60591 -1939254,273780 -1939254,273780 -102047,12992 -204449,20669 -306733,25866 -745512,-4843 -1594725,-119055 -2435435,-457205 -403464,-1620592 585710,-5042603 595867,-5077327 0,0 -1354607,3330475 -982205,5078035 -1769175,489922 -2621577,224764 -2836892,133938 -208347,-640040 -292560,-1329450 -292560,-2017089 0,-2181970 814253,-4326735 978072,-4735988 6019847,-2135907 12846860,-180118 13868751,136418 -5197,75000 -51732,736654 -117284,1671143 0,0 -1434922,5244453 -1480985,5469571zm6113509 -1367599c2206773,-432048 3572365,-1541576 3572365,-1541576 -38032,19488 -3805987,1916222 -8103314,1352009l411024 -5849533 -137244 -46417c-45472,-15354 -2755514,-912166 -6339808,-1134332 1663938,-267401 4121460,-322913 4152050,-323386l1280198 147048c0,0 -1450040,-606497 -1620119,-676536 3679019,222047 8269022,1479095 8319455,1493151l29174 8031 30354 -1535c1481222,-74646 2658545,199015 3533743,548622l-7323 17953c3652798,1500355 4144964,5105791 4144964,5105791 -591,-28464 -65551,-2145474 -1694647,-3886184 1379883,52795 2596537,443268 3632956,977363 763228,448229 1934174,1368308 2501694,3007798 428268,1236851 155788,2768033 -710551,3996145 -974411,1380827 -2539372,2181379 -4294256,2196497 -3491459,30000 -5454925,-1807442 -7020241,-3864451 837992,243307 2464017,598465 4478861,456260 0,0 -4932641,-1000985 -4953547,-1009253l-14646 36732c-493346,-261850 -949725,-734055 -1191142,-1010197zm14141822 -657993c518622,1258466 695788,3232798 -1282678,5620752 -949843,1146143 -2262285,1632167 -3901066,1444372 -963899,-110434 -1946931,-449174 -2873270,-911576l-15827 -25275c-1181,826 -9685,6259 -15354,9685 -202323,-101693 -402993,-207166 -598938,-319843 916891,377953 1990632,617362 3249333,606496 1877246,-16181 3553113,-874725 4598036,-2355592 874370,-1239214 1185000,-2772049 839764,-4069019zm-8269377 6255595c-1171654,771615 -7293194,4996185 -10398079,10874773 -501024,-404174 -944882,-776339 -1306890,-1086379 2105198,-4224806 7241816,-11257095 8146187,-12484616 861969,946772 2137206,1963230 3558782,2696222zm-9500322 3044058l5197 -25866c857363,-4221263 3964255,-6344651 4955082,-6924809 173741,232914 375355,496890 607560,775513 37559,47480 80906,96496 121063,144685 -746221,1010670 -5999178,8175124 -8187526,12521584 -279331,-242598 -485906,-427205 -600709,-530787l3099333 -5960320zm-7490085 11162489c-1066654,-222756 -5523902,-1153820 -5801225,-1211812 17481,-163110 73111,-683032 113859,-1062875 2716655,1334883 4857759,1126773 4857759,1126773 -39094,-2717 -2114293,-169370 -4815240,-1523269 1890,-17244 3189,-29646 3189,-29646l-141023 -48898c-22087,-7795 -45000,-17834 -67441,-26102 -593623,-307441 -1214883,-671811 -1850081,-1104331 -1893899,-1452285 -3985633,-3812366 -5196027,-5258981 -117638,-172087 -234095,-347953 -349489,-527599 1736576,859607 10684379,5297485 10684379,5297485l-1546891 -1179332c0,0 -3429097,-4210515 -3954452,-4855516 2612246,508347 5097405,3289491 5123744,3319255l60472 68622c0,0 1614805,-94961 1812403,-106654 103701,168426 2048388,3325751 2330435,3783547 -672756,788386 -1206497,1872639 -1264371,3339333zm-30064275 6567997c343228,1062521 840591,2601735 840591,2601735 0,0 1439529,863859 1794332,1076693 -106063,88229 -337796,281457 -530433,441969 -674410,10866 -3020908,121772 -4465398,1115552l-356693 -2496616 -2150198 750237 303779 2364923 -1022953 486142 -205630 -1954017 -2442049 1025670 161574 1798112c-2179135,991182 -4571224,3459097 -5522366,4502247 343701,-1869096 1403269,-5073429 4668547,-7358982 4426303,-3098506 8201935,-4167759 8926897,-4353665zm-14137452 13197058c-337205,95433 -718347,142795 -825237,57047 -143859,-123071 -550631,-1024843 -550631,-2241498 0,-767953 162048,-1661339 654213,-2563702 1290356,-2365632 9959772,-9343236 14544697,-9422016 19134,59056 94724,293505 198780,614883 -806930,209646 -4599925,1305355 -9026700,4403980 -4731736,3312168 -4981185,8494613 -4993469,9127802 -590,8150 -1181,16535 -1653,23504zm478701 -1105985c1653,-10866 3661,-22559 5315,-33543 753662,-845552 3293506,-3572838 5598311,-4648232l158386 1762324c-2221301,799134 -4396539,1786655 -5762012,2919451zm6127682 -3048900c-62008,-691654 -285000,-3171499 -304607,-3389885 196772,-82559 1379765,-579449 1722285,-723307 39921,378779 298701,2837600 371103,3524648 -586418,181772 -1187600,378071 -1788781,588544zm2154805 -700513l-189922 -1803308 1027324 -487914 253228 1971852c-353386,100040 -718229,206693 -1090630,319370zm1456300 -421890c-108071,-841418 -505040,-3932011 -536221,-4175790 211418,-73819 1127954,-393662 1431143,-499371 51496,360237 503150,3521932 610985,4275948 -460631,116812 -967324,250040 -1505907,399213zm3918074 -963662c-237284,49725 -991773,211181 -2045907,472442l-283229 -1982246c1241930,-905198 3318074,-1091812 4199767,-1129371 -42756,35551 -69330,57756 -69330,57756l300708 16772 -2102009 2564647zm11146662 4995713c-4523035,-2060907 -9530677,-4342563 -10743315,-4894965l2161301 -2637167c1245827,85276 6296461,484961 10241819,1568387 73937,174921 628229,1485001 890670,2105317 -759450,-434174 -4996658,-2855436 -4996658,-2855436 0,0 2911538,2911774 3548625,3548743 -838347,-165354 -3843310,-757796 -3843310,-757796 0,0 2704490,1943624 3433349,2467561 -820630,-38386 -3590081,-168071 -3590081,-168071 0,0 2667521,1212403 3267049,1484883 -160275,60119 -319370,119764 -369449,138544zm7907251 3602719c-52560,-23858 -3491814,-1591064 -7423943,-3382562l867638 -325275c0,0 -1487718,-676300 -2313427,-1051537 954922,44764 2903506,136182 2903506,136182 0,0 -2198151,-1580080 -3060238,-2199687 991064,195472 3360711,662835 3360711,662835 0,0 -1551143,-1551261 -2437915,-2438033 1242520,709961 3526420,2015080 3526420,2015080l-1206497 -2851538c1155237,341457 2193309,745867 2981577,1223269l469843 284528c0,0 -70984,-184607 -129331,-336260 670512,719646 1806734,1938899 1806734,1938899l128149 -215079c22323,-37205 1019647,-1693939 2713822,-3949846 2816104,4192326 6587367,5196973 7833903,5419847 -2559569,2066458 -5877642,4007720 -10020952,5069177zm10410716 -5389374c-549685,-63189 -4881736,-707481 -7983904,-5416658 2107561,-2768034 5198509,-6329414 8796267,-8928787 121181,268701 359764,773859 698505,1396773 345118,795119 799370,1650710 1396418,2486577 306024,428504 769961,891969 1346576,1371379 633426,650079 1335946,1215710 2094923,1591891 -424725,772796 -2457876,4241933 -6348785,7498825zm4427839 -9451071c-1099135,-1164686 -1989687,-2597718 -2577995,-3673349 -442441,-1029804 -700158,-1956734 -843425,-2586852l4724 -591c-470906,-4356027 3097325,-5662445 3803153,-5877170 437362,393662 1599922,1419804 3043585,2533585 -402757,187441 -1194096,606496 -1838151,1252678 -466772,-54449 -758859,-82087 -758859,-82087 11811,2481 275669,56693 695906,147048 -219804,229488 -419056,486378 -576615,770433 -190158,-4606 -295748,-5551 -295748,-5551 9094,1181 107126,13819 277913,36732 -316417,586418 -451890,1286694 -211653,2100711 766181,2596892 12765718,7727014 14785878,8574573 -836576,946064 -1674332,1982955 -2426577,3070987 -4027444,-797245 -10222685,-3890554 -13082136,-6261147zm2074844 -8292998c688937,-608505 1484410,-963662 1695592,-1051536 851103,644409 1782521,1303229 2710750,1873466 -1365592,-395552 -3203389,-670040 -4406342,-821930zm4777563 1326024c-2172522,-374527 -4369728,-496654 -5470753,-536220 163701,-255709 365906,-484961 582757,-689056 1301221,284882 3443034,776575 4887996,1225276zm-1569687 27475534c90591,456969 439371,1797521 1519962,2769215 -102047,294685 -336378,1023071 -381851,1602402l-2023111 -479646 -40394 1653899 1978584 431457 -107717 645591 -1999607 -549449 75944 2125986 1641262 429804c94606,366496 634252,2175474 2335513,3463467 1587285,1201773 1415907,2591459 1336537,2958073 -803859,-111142 -1803663,-368622 -2983467,-896339 -2919569,-1305946 -3043585,-2284490 -3411263,-5188823l-218740 -1620120c-526063,-3525475 -2331498,-5008114 -2951105,-5421027 1868860,-1858821 4579965,-1935120 5229453,-1924490zm-612638 7906542c-7087,-197953 -35669,-998978 -47717,-1335120 417757,114686 3536932,971694 3784255,1039726 -45708,346653 -99212,707599 -162401,1077402 -8622,50079 -13583,99685 -19016,149173 -749174,-196299 -3339806,-874607 -3555121,-931181zm1740238 -1233545l109133 -655512 2017679 439961c-23386,246260 -50787,506221 -83149,777284l-2043663 -561733zm6704650 9145283c7914,18071 14764,40984 14764,67205 0,23268 -5433,48661 -20433,74527 -95551,164174 -713977,667442 -4660397,256418 -5465674,-569410 -6257958,-4234846 -6601068,-7940439 -272363,-2944373 -2038939,-4995595 -2504884,-5490005 139961,-209882 290315,-402402 447520,-582047 484370,316181 2324529,1728308 2842207,5196972l217559 1611852c366614,2894530 518150,4092405 3630712,5484925 3207876,1434805 5131657,958230 5537602,827245 234095,105355 1011970,455434 1096418,493347zm-1939371 -2639411c387638,299527 722717,558189 815079,703347 97914,153779 133347,308504 133347,451299 0,295276 -149174,538938 -213426,630473 -183425,58110 -907677,248859 -2107796,110551 81850,-428622 217913,-1900395 -1408112,-3131577 -1532363,-1160080 -2093505,-2753979 -2239254,-3258782l2055238 538347c68977,1718859 1855514,3099569 2964924,3956342zm-2604923 -7098904c-648426,-141260 -3579925,-780473 -3829846,-835040 4488,-189094 15000,-617126 21260,-880276 367559,86929 3336144,790749 3864924,916064 -13582,237520 -32008,505866 -56338,799252zm2491301 -3209175c668977,-37323 1417678,838583 1819371,1422875 -635197,-53032 -4213113,-351142 -4213113,-351142l0 204094c0,7559 -709,285473 -21614,752599l-2041183 -483780c34842,-514724 241181,-1186772 351142,-1514410 515551,419410 1182048,753544 2044490,887481 0,0 1310316,-876143 2060907,-917717zm-2291813 491693c-2460593,-546851 -3023506,-2889333 -3123900,-3450593 3163349,-1894490 5479729,-7925204 5775713,-8724220 687756,89055 1657088,179292 2564766,139607 -568820,244370 -1624962,697913 -1624962,697913l491929 149646c105473,31890 2294766,684213 3961421,398859 -507402,517914 -1557639,1590001 -1557639,1590001l2941065 235985 -9428393 8962802zm18509306 -16699856c0,72520 -3898,140906 -11339,205276 -191929,1631340 -5025594,5299374 -6871777,6575202l-22205 15118c0,0 -1145906,1415434 -1676339,2070710 72283,-578268 227716,-1820198 227716,-1820198l-361063 343229c-389764,-31181 -1954254,-156615 -2476892,-198662 396497,-404764 1476497,-1507088 1476497,-1507088 0,0 -3186498,-182598 -4078467,-394724 654331,-281103 2096340,-900474 2096340,-900474 0,0 -3646420,-160039 -4593193,-304960 372284,-430513 2304451,-2665869 3393783,-3926224 3998270,-3221577 7033942,-2166852 7033942,-2166852 -151299,-69567 -2808427,-1222088 -6490989,1296851l-197008 -2598c-375473,-4725 -792639,-47717 -1239568,-121063 2660553,-3795948 6340989,-6945124 7209809,-7664888 4641854,3274491 6580753,6872368 6580753,8501345zm-13879145 -12247805l7441 -19606c2780435,1028505 5088902,2255907 6971226,3543192 -696615,581929 -2621104,2245159 -4605712,4446735 -4015870,-1669843 -14060090,-6249335 -14690091,-8384534 -222401,-753544 -68740,-1400906 255119,-1939608 2243978,306969 9403354,1339017 12062017,2353821zm16635013 -6629769l5197 8150c-1346458,894567 -4416854,2584372 -8820597,2933152 -1515947,120118 -2869491,345236 -4050358,616181 -687520,-267047 -9202921,-3574373 -9609338,-3690475 0,0 4062995,1943269 7256698,3180829l-8963038 -2330907 9521818 2864412 -6876383 -814962 7062761 1215474c-2577167,772559 -3980672,1657678 -4002522,1671733l-41457 26575c-767835,-189449 -1627442,-373583 -2518112,-547559l6378 -16654c-1878073,-730276 -4194334,-2395159 -5941895,-3784491 3361538,-6424021 10416386,-10873119 10494339,-10921662 867520,406890 1776498,701811 2669530,804095 1705749,195591 3074175,-312874 4067011,-1511222 2837010,-3424018 1306064,-6099690 593740,-7020005 -81968,-142559 -166417,-280630 -255118,-409371 514961,447639 934962,888899 1251852,1256340l-15591 29055c2362,1299 46772,27638 112795,85748 127323,151536 235630,287599 323977,403229 217087,367205 420591,977481 365197,1937127 -1254095,1785474 -2404372,4531657 -1642678,6610754 398622,1088032 1265552,1803190 2577049,2125395 3302837,811772 6811895,-1850907 7990400,-2857561 614056,-290552 1057442,-530079 1242402,-632599l1418 1890c-20906,718583 -280748,7162682 -2805475,8767329zm19793756 4397602c-163819,2661144 -918898,4176263 -1369489,4858823 17834,-443859 -97796,-1820671 -97796,-1820671l-225590 802678c-710788,1675513 -3188271,5918509 -6076895,5437091 -2800868,-467008 -6594572,-7754534 -6632486,-7828117l-175630 -339685c0,0 -330590,708662 -456496,978544 -1354962,-1835434 -2028781,-4473192 -2035750,-4500830l-20905 -83740 -77244 -38741c-1350828,-675472 -1541813,-2275277 -1543584,-2291340l-7559 -68031c1733269,-2196734 2044017,-6688825 2097757,-7983786 527009,392717 1666773,1364765 2110396,2709096l14173 43229 1024607 1006418 -71102 1653c708,36851 17244,687048 142795,1317167l-1658151 1020473 223465 2654884 53268 49488c16535,15236 1512402,1407757 2898073,2908585 -367560,4157720 2465198,7067014 2465198,7067014 -23858,-29056 -2303978,-2858625 -2115710,-6683273 21378,23858 43229,47598 64488,71338l95670 107244 128504 -64370c23858,-11929 491575,-253583 750000,-837284 187560,224882 424489,437835 727914,610513 101693,241889 608505,1352363 1629687,2057481 301653,208347 569410,370985 801851,499253 205984,424843 928583,1656733 2453506,1818545 1839450,195118 2780435,-2352050 2819529,-2460593 0,0 -1233308,2250947 -2779844,2086891 -931773,-98858 -1529293,-677598 -1865199,-1138229 231142,95788 361182,128386 373111,131339l59291 14055 56221 -23150c101220,-41811 2481970,-1037481 2760356,-2234765 182363,-783898 -52086,-1167166 -263976,-1348111 353858,-513426 549685,-972167 565984,-1011261 0,0 -1134095,1698545 -2380986,2058309 0,0 1140119,128740 1592246,-745867 84212,81496 177165,234449 177165,524055 0,121064 -16299,265512 -56339,437717 -189921,816261 -1803544,1658506 -2478781,1946340 -103819,-32480 -361300,-124134 -743150,-326338 -1418,-3307 -4016,-9449 -4134,-9922l-8622 3426c-241418,-128505 -530906,-300473 -864568,-530788 -831733,-574371 -1306536,-1480277 -1460198,-1812049 1129135,-2401065 4377523,-3741381 4410358,-3754845 0,0 -3437601,1008898 -4681539,3452364 -1039253,-644291 -1147678,-1887166 -1148859,-1900277l-8740 -117756 -10630 -4252c1310788,-2656537 5059728,-4978350 5098232,-5002090 0,0 -4069846,2076970 -5430359,4825161 -722717,-549449 -1208741,-2187049 -1481103,-3109136l-232441 -726497c-226063,-554882 -282166,-1457481 -294449,-1739765l18071 -17362c17126,-16417 1714135,-1619057 3863625,-2183860l7559 27520c2362,-591 48071,-11221 115039,-24804 4016,14056 15709,54567 15709,54567 65315,-18897 195118,-56929 367914,-110078 636378,-69804 1802954,-76300 3023978,553937 1692994,873662 5762485,6465832 5762485,10404929 0,111969 -3307,222520 -9921,331536z"/>
  </g>
 </g>
</svg>
